<svg width="24" height="24" fill="none" xmlns="http://www.w3.org/2000/svg"><g clip-path="url(#clip0)"><path d="M19.289 24c-.999 0-2.205-.25-3.531-.75-2.908-1.097-6.071-3.264-8.908-6.1-2.837-2.838-5.004-6.002-6.101-8.91-.997-2.643-1-4.813-.006-5.806.143-.143.288-.296.439-.455.906-.953 1.93-2.026 3.288-1.977.936.038 1.842.62 2.77 1.775 2.744 3.411 1.507 4.627.076 6.036l-.253.25c-.234.235-.676 1.319 3.439 5.434 1.343 1.343 2.489 2.326 3.404 2.921.576.375 1.607.942 2.03.519l.255-.257c1.407-1.428 2.623-2.66 6.032.08 1.155.928 1.736 1.834 1.774 2.771.056 1.357-1.025 2.384-1.98 3.29-.157.15-.31.295-.453.437-.493.494-1.282.742-2.275.742zM4.373.807c-.964 0-1.835.917-2.606 1.728-.155.164-.305.322-.453.47-.74.739-.665 2.682.19 4.951 1.058 2.803 3.16 5.865 5.917 8.624 2.758 2.757 5.819 4.858 8.623 5.915 2.269.857 4.212.93 4.95.19.148-.147.306-.297.47-.451.828-.788 1.769-1.68 1.728-2.671-.029-.68-.524-1.413-1.474-2.176-2.84-2.284-3.634-1.478-4.952-.142l-.258.26c-.63.631-1.653.492-3.041-.411-.963-.626-2.153-1.645-3.535-3.028-3.415-3.415-4.508-5.504-3.439-6.576l.258-.254c1.339-1.317 2.147-2.112-.138-4.955C5.848 1.333 5.117.837 4.436.808h-.063z" fill="#F5F5F5"/></g><defs><clipPath id="clip0"><path fill="#fff" d="M0 0h24v24H0z"/></clipPath></defs></svg>