<svg width="84" height="38" fill="none" xmlns="http://www.w3.org/2000/svg"><g clip-path="url(#clip0)" fill="#F5F5F5"><path d="M6.677 14.874l-.88-1.267a3.515 3.515 0 1 0-.28-7.03H.001v1.318h5.518a2.2 2.2 0 0 1 2.2 2.197 2.195 2.195 0 0 1-2.2 2.197H0v6.184h1.32v-4.857h2.883l3.354 4.865h1.615l-2.495-3.607zm9.153 3.606l5.113-11.904 5.129 11.898h-1.366l-3.754-8.748-3.794 8.748-1.329.007zm21.965-6.15h-1.329v6.144h1.329V12.33z"/><path d="M38.129 3.914a3.911 3.911 0 0 0-2.266-3.55 3.924 3.924 0 0 0-5.394 2.382 3.91 3.91 0 0 0 1.103 4.064 3.921 3.921 0 0 0 1.973.962v15.377h1.32V7.772a3.92 3.92 0 0 0 3.264-3.858zm-6.585 0a2.66 2.66 0 0 1 1.646-2.46 2.669 2.669 0 0 1 3.634 1.94 2.659 2.659 0 0 1-1.133 2.734 2.668 2.668 0 0 1-1.481.449 2.67 2.67 0 0 1-2.475-1.641 2.66 2.66 0 0 1-.204-1.022h.013zM84 6.576h-1.711l-3.74 5.492-3.75-5.492h-1.708l1.784 2.636.739 1.099 2.199 3.238v4.945h1.405v-4.945l3.405-4.963L84 6.576zm-21.198 6.993l-1.13-1.099 3.057-2.893 3.167-2.994h-2.054l-5.143 4.833V6.594h-1.412v11.882H60.7v-5.035l5.107 5.022h2.002l-5.006-4.905v.01zm-11.332-.386a4.617 4.617 0 0 0-1.264-.892 8.972 8.972 0 0 0-1.801-.66c-1.038-.259-1.796-.615-2.272-1.07a1.05 1.05 0 0 1-.405-.906c.04-.231.14-.447.292-.624.174-.21.38-.39.61-.534.255-.162.531-.29.82-.38.298-.096.61-.145.924-.145a3.928 3.928 0 0 1 2.043.503s.31.22.414.299l.03.024.41.36.22-.176.853-.678a3.189 3.189 0 0 1-.3-.293 4.22 4.22 0 0 0-.77-.59 6.582 6.582 0 0 0-1.233-.585 4.844 4.844 0 0 0-1.672-.268 4.437 4.437 0 0 0-1.363.22 4.787 4.787 0 0 0-1.25.608 3.14 3.14 0 0 0-.94.908l.015-.016a3.07 3.07 0 0 0-.326.584c-.084.196-.14.404-.163.616a2.929 2.929 0 0 0 0 .439c.029.39.153.768.363 1.098.131.21.29.4.47.567.362.322.773.585 1.217.778a10.26 10.26 0 0 0 1.687.584 5.672 5.672 0 0 1 2.2 1.004c.507.422.734.886.681 1.393-.031.22-.115.428-.244.608a2.55 2.55 0 0 1-.534.576 2.98 2.98 0 0 1-1.802.593 6.082 6.082 0 0 1-1.475-.17 3.686 3.686 0 0 1-1.184-.509 2.765 2.765 0 0 1-.494-.44 4.708 4.708 0 0 1-.3-.364l-1.233.6c.01.022.107.151.292.389.244.294.525.555.836.777a5.98 5.98 0 0 0 1.436.763 5.886 5.886 0 0 0 2.125.34c.476.002.95-.073 1.403-.22a4.073 4.073 0 0 0 1.225-.639c.36-.262.666-.593.9-.973.22-.352.368-.743.44-1.151.083-.852-.21-1.635-.88-2.348zm-17.608 14.34H32.6v-.841h3.437v.841h-1.262v3.295h-.913v-3.295zm4.652-.841h1.896a1.657 1.657 0 0 1 1.21.42 1.301 1.301 0 0 1 .356.946v.011a1.286 1.286 0 0 1-.88 1.285l1.014 1.481h-1.067l-.88-1.318h-.736v1.318h-.913v-4.143zm1.836 2.012c.44 0 .7-.237.7-.586v-.011c0-.391-.273-.591-.717-.591h-.906v1.19h.923v-.002zM46 26.653h.843l1.777 4.174h-.954l-.379-.929h-1.76l-.377.93h-.929l1.78-4.175zm.96 2.439l-.552-1.345-.552 1.345h1.104zm3.13-2.41h1.016l1.084 2.917 1.084-2.917h.983l-1.678 4.174h-.814l-1.675-4.174zm6.578 0h3.13v.819h-2.224v.841h1.955v.811h-1.955v.879h2.252v.81h-3.158v-4.16zm5.747 0h.913v3.315h2.074v.828h-2.987v-4.143zm-29.703 9.186v-.02a2.103 2.103 0 0 1 1.33-1.993 2.11 2.11 0 0 1 .832-.148 2.142 2.142 0 0 1 1.636.64l-.58.658a1.54 1.54 0 0 0-1.06-.468 1.23 1.23 0 0 0-1.203 1.29v.022c0 .71.492 1.302 1.203 1.302a1.5 1.5 0 0 0 1.1-.485l.58.586a2.12 2.12 0 0 1-1.7.74 2.093 2.093 0 0 1-2.138-2.124zm6.035 0v-.02a2.194 2.194 0 0 1 1.353-2.032 2.201 2.201 0 0 1 3.046 2.022v.01a2.195 2.195 0 0 1-2.19 2.207 2.201 2.201 0 0 1-2.209-2.187zm3.455 0v-.02a1.256 1.256 0 0 0-.764-1.2 1.263 1.263 0 0 0-.98-.004 1.238 1.238 0 0 0-.756 1.192v.013a1.258 1.258 0 0 0 1.741 1.205 1.242 1.242 0 0 0 .757-1.186h.002zm3.544-2.082h.842l1.944 2.55v-2.55h.902v4.143h-.776l-2.008-2.636v2.636h-.902v-4.143h-.002zm6.274 2.082v-.02a2.105 2.105 0 0 1 2.163-2.141 2.142 2.142 0 0 1 1.636.64l-.58.658a1.54 1.54 0 0 0-1.06-.468 1.232 1.232 0 0 0-1.138.822 1.228 1.228 0 0 0-.066.49c0 .71.493 1.302 1.203 1.302a1.5 1.5 0 0 0 1.1-.485l.58.586a2.12 2.12 0 0 1-1.7.74 2.093 2.093 0 0 1-2.137-2.124zm6.377-2.082h.912v4.143h-.912v-4.143zm3.728 0h3.13v.81h-2.222v.842h1.955v.81h-1.955v.88h2.252v.81h-3.16v-4.152zm5.749 0h1.896a1.656 1.656 0 0 1 1.21.42 1.3 1.3 0 0 1 .356.947v.01a1.286 1.286 0 0 1-.88 1.286l1.014 1.48h-1.067l-.88-1.317h-.716v1.318h-.913v-4.144h-.02zM69.71 35.8c.44 0 .7-.237.7-.587v-.022c0-.39-.273-.59-.717-.59h-.906v1.19h.923v.009zm4.05.069v-.02a2.125 2.125 0 0 1 2.175-2.142 2.28 2.28 0 0 1 1.63.57l-.581.693a1.527 1.527 0 0 0-1.084-.42 1.248 1.248 0 0 0-1.193 1.29v.01a1.24 1.24 0 0 0 1.256 1.317c.306.01.607-.077.86-.248v-.591h-.919v-.787h1.801v1.8a2.693 2.693 0 0 1-1.772.659c-1.294 0-2.173-.905-2.173-2.131zm6.598-2.083h3.13v.81h-2.222v.842h1.951v.81h-1.955v.88h2.252v.81h-3.156v-4.152z"/></g><defs><clipPath id="clip0"><path fill="#fff" d="M0 0h84v38H0z"/></clipPath></defs></svg>