<svg width="156" height="29" fill="none" xmlns="http://www.w3.org/2000/svg"><path d="M52.622 0c-2.24 0-4.29.877-5.771 2.466-1.425 1.532-2.21 3.569-2.21 5.742v.044c0 2.172.778 4.2 2.188 5.718 1.467 1.577 3.51 2.444 5.752 2.444 2.24 0 4.292-.875 5.772-2.465 1.424-1.533 2.21-3.57 2.21-5.741v-.044c0-2.174-.78-4.205-2.19-5.718C56.907.868 54.866 0 52.624 0zm5.58 8.252c0 3.397-2.399 5.958-5.58 5.958-3.203 0-5.62-2.579-5.62-6.002v-.043c0-3.399 2.398-5.96 5.58-5.96 3.204 0 5.62 2.58 5.62 6.003v.044zM114.05 0c-2.241 0-4.291.877-5.774 2.466-1.424 1.532-2.207 3.569-2.207 5.742v.044c0 2.172.776 4.2 2.185 5.718 1.467 1.577 3.513 2.444 5.75 2.444 2.244 0 4.292-.875 5.775-2.465 1.425-1.533 2.209-3.57 2.209-5.741v-.044c0-2.174-.777-4.205-2.188-5.718C118.333.868 116.292 0 114.051 0zm5.578 8.252c0 3.397-2.399 5.958-5.578 5.958-3.206 0-5.621-2.579-5.621-6.002v-.043c0-3.399 2.399-5.96 5.576-5.96 3.207 0 5.623 2.58 5.623 6.003v.044zM39.543.558v15.3c0 .176-.14.318-.313.318h-1.676a.316.316 0 0 1-.313-.318V.558c0-.177.14-.319.313-.319h1.676c.174 0 .313.142.313.32zM5.53.24H.235A.236.236 0 0 0 0 .48v15.458c0 .133.105.24.235.24H5.53c2.343 0 4.468-.818 5.985-2.3 1.496-1.461 2.32-3.475 2.32-5.67v-.043c0-4.591-3.492-7.925-8.306-7.925zm5.94 8.013c0 3.364-2.444 5.714-5.94 5.714H2.302V2.45h3.227c3.496 0 5.94 2.369 5.94 5.759v.044zm64.967 3.467v.043c0 2.741-2.243 4.653-5.457 4.653-2.44 0-4.463-.804-6.367-2.531a.323.323 0 0 1-.029-.436l1.042-1.256a.316.316 0 0 1 .243-.116c.082 0 .157.031.212.083h.002c1.61 1.483 3.05 2.084 4.962 2.084 1.832 0 3.064-.924 3.064-2.304v-.044c0-1.211-.57-1.95-3.687-2.618-3.187-.704-5.308-1.78-5.308-4.734V4.5C65.113 1.892 67.326 0 70.376 0c2.174 0 3.818.585 5.495 1.955l.006.006a.325.325 0 0 1 .104.236c0 .069-.022.13-.059.185l-.989 1.332a.307.307 0 0 1-.433.058h-.002c-1.314-1.09-2.636-1.598-4.165-1.598-1.714 0-2.912.893-2.912 2.172v.043c0 1.224.597 1.974 3.86 2.683 3.614.803 5.155 2.193 5.155 4.647zm25.293 1.478a.32.32 0 0 1 .096.227.326.326 0 0 1-.09.222c-1.329 1.37-3.11 2.769-6.213 2.769-2.165 0-4.156-.845-5.61-2.375-1.431-1.516-2.222-3.572-2.222-5.788v-.044c0-2.2.79-4.254 2.222-5.782C91.378.86 93.392 0 95.584 0c3.03 0 4.704 1.204 6.061 2.503a.327.327 0 0 1 .005.446l-1.148 1.255a.304.304 0 0 1-.424.013l-.002-.002c-1.459-1.41-2.808-2.01-4.513-2.01-3.144 0-5.516 2.56-5.516 5.96v.043c0 3.366 2.424 6.002 5.516 6.002 2.032 0 3.321-.84 4.625-2.104a.308.308 0 0 1 .436-.008h.002l1.103 1.098zM156 14.306v1.552a.315.315 0 0 1-.314.318h-10.971a.315.315 0 0 1-.313-.318V.558c0-.177.141-.319.313-.319h10.633c.171 0 .312.142.312.32v1.55c0 .176-.14.32-.312.32h-8.642v4.619h7.706c.173 0 .314.142.314.319v1.55c0 .176-.14.321-.314.321h-7.706v4.748h8.98c.174 0 .314.142.314.32zM140.079.478a.19.19 0 0 1-.017.086l-6.52 15.434a.31.31 0 0 1-.278.178h-1.498a.31.31 0 0 1-.278-.18L124.967.567a.203.203 0 0 1-.017-.09c0-.133.106-.24.237-.24h1.985a.31.31 0 0 1 .282.184l5.083 12.435 5.1-12.424a.31.31 0 0 1 .285-.194h1.922c.13 0 .235.107.235.24zM25.782.401a.312.312 0 0 0-.273-.162h-1.58a.315.315 0 0 0-.287.189L16.736 15.85a.236.236 0 0 0 .218.325h1.841a.312.312 0 0 0 .284-.189l1.328-2.998h8.548l1.316 2.998a.31.31 0 0 0 .284.19h1.925a.237.237 0 0 0 .214-.337L25.782.401zM21.374 10.8l3.322-7.508 3.296 7.508h-6.618zm35.69 12.55h2.341c.67 0 1.206.204 1.548.554.264.266.42.655.42 1.09v.017c0 .916-.622 1.454-1.477 1.614l1.672 2.263h-.755l-1.578-2.153H57.68v2.153h-.618V23.35zm2.287 2.824c.817 0 1.4-.426 1.4-1.139v-.015c0-.68-.514-1.091-1.392-1.091H57.68v2.245h1.67zm3.988-2.824h3.936v.57h-3.321v1.891h2.971v.57h-2.971v1.938h3.36v.57H63.34V23.35zm5.495 4.73l.38-.456c.567.52 1.11.783 1.866.783.73 0 1.212-.396 1.212-.942v-.016c0-.515-.271-.808-1.415-1.053-1.25-.275-1.826-.69-1.826-1.6v-.014c0-.87.754-1.512 1.787-1.512.794 0 1.36.231 1.914.683l-.358.48c-.505-.418-1.012-.6-1.57-.6-.709 0-1.159.394-1.159.894v.015c0 .523.279.816 1.477 1.074 1.215.27 1.774.722 1.774 1.568v.015c0 .951-.778 1.567-1.858 1.567-.864.001-1.573-.29-2.225-.887zm5.64-1.946v-.013c0-1.527 1.127-2.866 2.784-2.866 1.656 0 2.769 1.321 2.769 2.847v.019c0 1.526-1.127 2.863-2.784 2.863-1.657 0-2.77-1.324-2.77-2.85zm4.915 0v-.013c0-1.26-.902-2.288-2.146-2.288-1.245 0-2.132 1.012-2.132 2.27v.018c0 1.255.902 2.285 2.146 2.285 1.246 0 2.132-1.014 2.132-2.272zm2.59-2.784h2.341c.67 0 1.206.204 1.548.554.265.266.42.655.42 1.09v.017c0 .916-.622 1.454-1.479 1.614l1.673 2.263h-.754l-1.576-2.153h-1.557v2.153h-.615V23.35zm2.287 2.824c.818 0 1.4-.426 1.4-1.139v-.015c0-.68-.513-1.091-1.391-1.091h-1.68v2.245h1.671zm5.267-2.245h-1.828v-.578h4.278v.578h-1.828v4.96h-.622v-4.96zm10.115 4.177c-.498.545-1.073.861-1.781.861-.98 0-1.71-.625-1.71-1.55V27.4c0-.735.48-1.266 1.313-1.598-.373-.443-.545-.782-.545-1.218v-.016c0-.728.576-1.313 1.44-1.313.762 0 1.323.561 1.323 1.25v.016c0 .704-.49 1.155-1.284 1.44l1.244 1.29c.242-.356.46-.775.653-1.235l.506.24c-.241.521-.49.995-.783 1.391l.947.99-.466.363-.857-.895zm-.372-.39l-1.456-1.527c-.722.27-1.042.722-1.042 1.187v.016c0 .594.468 1.045 1.135 1.045.513 0 .964-.275 1.363-.722zm-.164-3.163v-.016a.746.746 0 0 0-.769-.767c-.49 0-.825.347-.825.798v.016c0 .326.132.57.543 1.021.692-.239 1.051-.58 1.051-1.052zM17.097 23.35h.614v4.96h3.066v.578h-3.68V23.35zm5.065 3.22v-3.22h.615v3.178c0 1.196.63 1.869 1.664 1.869 1.005 0 1.642-.616 1.642-1.827v-3.22h.614v3.172c0 1.615-.91 2.453-2.27 2.453-1.347 0-2.265-.838-2.265-2.405zm10.982-3.22l-2.006 2.714 2.084 2.824h-.73l-1.745-2.39-1.74 2.39H28.3l2.084-2.824-2.008-2.714h.725l1.665 2.279 1.663-2.279h.716zm1.68 3.22v-3.22h.615v3.178c0 1.196.628 1.869 1.662 1.869 1.005 0 1.643-.616 1.643-1.827v-3.22h.613v3.172c0 1.615-.908 2.453-2.27 2.453-1.347 0-2.264-.838-2.264-2.405zm6.701-3.22h2.342c.668 0 1.205.204 1.548.554.264.266.42.655.42 1.09v.017c0 .916-.621 1.454-1.477 1.614l1.67 2.263h-.753l-1.579-2.153H42.14v2.153h-.615V23.35zm2.287 2.824c.816 0 1.4-.426 1.4-1.139v-.015c0-.68-.514-1.091-1.392-1.091h-1.68v2.245h1.672zm5.436.52l-2.263-3.344h.746l1.837 2.77 1.85-2.77h.717l-2.265 3.34v2.199h-.622v-2.193zm55.854-3.344h.686l1.934 4.77 1.945-4.77h.663l-2.342 5.577h-.546l-2.34-5.577zm6.915 0h.614v5.538h-.614V23.35zm2.851 0h.612v4.96h3.066v.578h-3.678V23.35zm5.364 0h.614v4.96h3.066v.578h-3.68V23.35zm7.635-.039h.577l2.481 5.578h-.662l-.638-1.463h-2.963l-.645 1.463h-.629l2.479-5.578zm1.519 3.544l-1.238-2.817-1.244 2.817h2.482zm2.874 1.224l.379-.455c.569.52 1.112.783 1.867.783.732 0 1.215-.396 1.215-.942v-.016c0-.515-.275-.808-1.416-1.053-1.252-.275-1.828-.69-1.828-1.6v-.014c0-.87.756-1.512 1.79-1.512.792 0 1.359.231 1.912.683l-.357.48c-.506-.418-1.012-.6-1.571-.6-.708 0-1.159.394-1.159.894v.015c0 .523.282.816 1.478 1.074 1.211.27 1.772.722 1.772 1.568v.015c0 .951-.778 1.567-1.859 1.567-.863.001-1.571-.29-2.223-.887z" fill="#F5F5F5"/></svg>